<svg width="413" height="418" viewBox="0 0 413 418" fill="none" xmlns="http://www.w3.org/2000/svg">
<path d="M199.077 192.962C202.152 191.859 205.579 191.63 208.983 192.498C214.2 193.828 218.23 197.445 220.274 202.003" stroke="#0068FF" stroke-width="4" stroke-miterlimit="10" stroke-linecap="round" stroke-linejoin="round"/>
<path d="M200.601 225.372C196.182 224.245 192.615 221.478 190.384 217.888C188.033 214.103 187.167 209.403 188.355 204.744" stroke="#0068FF" stroke-width="4" stroke-miterlimit="10" stroke-linecap="round" stroke-linejoin="round"/>
<path d="M221.229 213.127C219.958 218.11 216.603 222.009 212.333 224.13" stroke="#0068FF" stroke-width="4" stroke-miterlimit="10" stroke-linecap="round" stroke-linejoin="round"/>
<path d="M183.034 229.362C176.301 222.176 173.263 211.812 175.877 201.562" stroke="#00BD2D" stroke-width="4" stroke-miterlimit="10" stroke-linecap="round" stroke-linejoin="round"/>
<path d="M230.47 224.152C223.893 235.262 210.562 241.202 197.419 237.85" stroke="#00BD2D" stroke-width="4" stroke-miterlimit="10" stroke-linecap="round" stroke-linejoin="round"/>
<path d="M226.083 188.022C233.142 195.222 236.38 205.825 233.707 216.309" stroke="#00BD2D" stroke-width="4" stroke-miterlimit="10" stroke-linecap="round" stroke-linejoin="round"/>
<path d="M182.868 188.684C190.062 180.909 201.179 177.219 212.165 180.02" stroke="#00BD2D" stroke-width="4" stroke-miterlimit="10" stroke-linecap="round" stroke-linejoin="round"/>
<path d="M166.08 199.064C169.287 186.485 178.137 176.838 189.234 172.136" stroke="#FFFF00" stroke-width="4" stroke-miterlimit="10" stroke-linecap="round" stroke-linejoin="round"/>
<path d="M219.082 246.246C211.628 249.108 203.246 249.77 194.921 247.647C182.182 244.399 172.45 235.364 167.816 224.069" stroke="#FFFF00" stroke-width="4" stroke-miterlimit="10" stroke-linecap="round" stroke-linejoin="round"/>
<path d="M243.504 218.807C242.022 224.621 239.334 229.808 235.776 234.171" stroke="#FFFF00" stroke-width="4" stroke-miterlimit="10" stroke-linecap="round" stroke-linejoin="round"/>
<path d="M214.663 170.224C226.165 173.157 235.216 180.807 240.275 190.579" stroke="#FFFF00" stroke-width="4" stroke-miterlimit="10" stroke-linecap="round" stroke-linejoin="round"/>
<path d="M167.841 175.444C173.798 168.883 181.411 164.022 189.832 161.365C198.389 158.665 207.779 158.241 217.113 160.621" stroke="#FFA500" stroke-width="4" stroke-miterlimit="10" stroke-linecap="round" stroke-linejoin="round"/>
<path d="M162.446 235.258C155.531 224.131 152.985 210.312 156.478 196.615" stroke="#FFA500" stroke-width="4" stroke-miterlimit="10" stroke-linecap="round" stroke-linejoin="round"/>
<path d="M192.472 257.25C185.377 255.441 179.029 252.193 173.66 247.899" stroke="#FFA500" stroke-width="4" stroke-miterlimit="10" stroke-linecap="round" stroke-linejoin="round"/>
<path d="M240.292 243.958C231.794 252.556 220.326 257.9 208.057 258.702" stroke="#FFA500" stroke-width="4" stroke-miterlimit="10" stroke-linecap="round" stroke-linejoin="round"/>
<path d="M245.848 180.642C253.726 192.083 256.808 206.738 253.106 221.256C252.24 224.653 251.044 227.878 249.561 230.907" stroke="#FFA500" stroke-width="4" stroke-miterlimit="10" stroke-linecap="round" stroke-linejoin="round"/>
<path d="M220.785 146.216C242.434 151.736 258.725 167.573 265.742 187.13" stroke="#FF0000" stroke-width="4" stroke-miterlimit="10" stroke-linecap="round" stroke-linejoin="round"/>
<path d="M156.495 165.823C168.177 152.758 184.881 144.789 202.716 144.225" stroke="#FF0000" stroke-width="4" stroke-miterlimit="10" stroke-linecap="round" stroke-linejoin="round"/>
<path d="M160.834 256.462C143.991 240.856 136.001 216.757 142.073 192.943" stroke="#FF0000" stroke-width="4" stroke-miterlimit="10" stroke-linecap="round" stroke-linejoin="round"/>
<path d="M226.673 269.858C214.919 274.091 201.817 274.974 188.799 271.655" stroke="#FF0000" stroke-width="4" stroke-miterlimit="10" stroke-linecap="round" stroke-linejoin="round"/>
<path d="M267.511 224.928C263.973 238.803 256.197 250.478 245.92 258.92" stroke="#FF0000" stroke-width="4" stroke-miterlimit="10" stroke-linecap="round" stroke-linejoin="round"/>
<path d="M191.162 128.614C202.06 126.759 213.515 127.104 224.917 130.012C236.219 132.894 246.36 138.01 254.988 144.767" stroke="#F700CD" stroke-width="4" stroke-miterlimit="10" stroke-linecap="round" stroke-linejoin="round"/>
<path d="M125.868 188.81C130.462 170.792 140.735 155.724 154.285 145.031" stroke="#F700CD" stroke-width="4" stroke-miterlimit="10" stroke-linecap="round" stroke-linejoin="round"/>
<path d="M184.667 287.86C163.809 282.541 146.904 269.614 136.163 252.801" stroke="#F700CD" stroke-width="4" stroke-miterlimit="10" stroke-linecap="round" stroke-linejoin="round"/>
<path d="M264.598 264.252C249.13 280.946 227.032 290.729 203.701 290.397" stroke="#F700CD" stroke-width="4" stroke-miterlimit="10" stroke-linecap="round" stroke-linejoin="round"/>
<path d="M276.666 170.617C285.893 187.911 288.941 208.57 283.716 229.06" stroke="#F700CD" stroke-width="4" stroke-miterlimit="10" stroke-linecap="round" stroke-linejoin="round"/>
<path d="M158.725 122.066C179.564 111.007 204.426 107.368 229.087 113.657" stroke="#8F00EA" stroke-width="4" stroke-miterlimit="10" stroke-linecap="round" stroke-linejoin="round"/>
<path d="M135.532 278.754C119.324 262.645 109.021 241.166 106.864 218.089C105.843 207.165 106.646 195.882 109.513 184.64" stroke="#8F00EA" stroke-width="4" stroke-miterlimit="10" stroke-linecap="round" stroke-linejoin="round"/>
<path d="M210.552 307.121C200.692 307.697 190.577 306.785 180.496 304.215C176.831 303.28 173.266 302.151 169.812 300.841" stroke="#8F00EA" stroke-width="4" stroke-miterlimit="10" stroke-linecap="round" stroke-linejoin="round"/>
<path d="M300.071 233.231C294.219 256.179 280.738 275.163 263.031 288.164" stroke="#8F00EA" stroke-width="4" stroke-miterlimit="10" stroke-linecap="round" stroke-linejoin="round"/>
<path d="M253.662 123.583C267.331 131.399 278.696 142.288 287.072 155.098C295.983 168.724 301.511 184.523 302.834 201.106" stroke="#8F00EA" stroke-width="4" stroke-miterlimit="10" stroke-linecap="round" stroke-linejoin="round"/>
<path d="M320.767 187.049C323.878 203.474 323.531 220.823 319.127 238.09" stroke="#0068FF" stroke-width="4" stroke-miterlimit="10" stroke-linecap="round" stroke-linejoin="round"/>
<path d="M184.824 92.6139C200.678 89.8829 217.35 90.3689 233.947 94.6009C245.771 97.6159 256.719 102.319 266.597 108.387" stroke="#0068FF" stroke-width="4" stroke-miterlimit="10" stroke-linecap="round" stroke-linejoin="round"/>
<path d="M105.779 144.698C115.252 130.094 127.757 117.948 142.192 108.917" stroke="#0068FF" stroke-width="4" stroke-miterlimit="10" stroke-linecap="round" stroke-linejoin="round"/>
<path d="M86.822 212.511C86.501 201.74 87.661 190.743 90.457 179.781" stroke="#0068FF" stroke-width="4" stroke-miterlimit="10" stroke-linecap="round" stroke-linejoin="round"/>
<path d="M175.637 323.27C157.362 318.61 141.181 309.918 127.804 298.386" stroke="#0068FF" stroke-width="4" stroke-miterlimit="10" stroke-linecap="round" stroke-linejoin="round"/>
<path d="M290.376 290.193C274.465 306.921 253.897 318.697 231.363 323.924" stroke="#0068FF" stroke-width="4" stroke-miterlimit="10" stroke-linecap="round" stroke-linejoin="round"/>
<path d="M71.8511 175.036C75.5401 160.569 81.4021 147.232 88.9991 135.283" stroke="#00BD2D" stroke-width="4" stroke-miterlimit="10" stroke-linecap="round" stroke-linejoin="round"/>
<path d="M83.7301 273.484C72.6581 252.733 66.8671 229.107 67.6321 204.756" stroke="#00BD2D" stroke-width="4" stroke-miterlimit="10" stroke-linecap="round" stroke-linejoin="round"/>
<path d="M170.893 341.876C152.875 337.282 136.609 329.316 122.595 318.826" stroke="#00BD2D" stroke-width="4" stroke-miterlimit="10" stroke-linecap="round" stroke-linejoin="round"/>
<path d="M337.733 242.835C330.557 270.975 315.16 294.843 294.763 312.526C276.268 328.561 253.663 339.51 229.35 343.948" stroke="#00BD2D" stroke-width="4" stroke-miterlimit="10" stroke-linecap="round" stroke-linejoin="round"/>
<path d="M300.304 110.415C318.733 128.315 331.852 151.129 338.03 176.111" stroke="#00BD2D" stroke-width="4" stroke-miterlimit="10" stroke-linecap="round" stroke-linejoin="round"/>
<path d="M200.465 71.7728C213.043 71.3818 225.887 72.7288 238.691 75.9938C243.28 77.1638 247.755 78.5528 252.108 80.1458" stroke="#00BD2D" stroke-width="4" stroke-miterlimit="10" stroke-linecap="round" stroke-linejoin="round"/>
<path d="M126.156 96.5097C140.638 86.3897 157.025 79.0797 174.407 75.1177" stroke="#00BD2D" stroke-width="4" stroke-miterlimit="10" stroke-linecap="round" stroke-linejoin="round"/>
<path d="M48.5927 230.468C45.8797 210.84 46.8467 190.37 52.0447 169.986C54.5657 160.1 57.9697 150.673 62.1517 141.767" stroke="#FFFF00" stroke-width="4" stroke-miterlimit="10" stroke-linecap="round" stroke-linejoin="round"/>
<path d="M105.369 331.311C84.179 314.073 67.9091 291.638 58.0181 266.466" stroke="#FFFF00" stroke-width="4" stroke-miterlimit="10" stroke-linecap="round" stroke-linejoin="round"/>
<path d="M229.171 364.714C208.68 367.931 187.214 367.132 165.842 361.682" stroke="#FFFF00" stroke-width="4" stroke-miterlimit="10" stroke-linecap="round" stroke-linejoin="round"/>
<path d="M357.539 247.885C353.669 263.064 347.716 277.161 340.064 289.949C332.077 303.298 322.238 315.22 310.985 325.457" stroke="#FFFF00" stroke-width="4" stroke-miterlimit="10" stroke-linecap="round" stroke-linejoin="round"/>
<path d="M345.437 137.743C353.76 154.169 359.239 172.08 361.411 190.696" stroke="#FFFF00" stroke-width="4" stroke-miterlimit="10" stroke-linecap="round" stroke-linejoin="round"/>
<path d="M274.665 67.5967C287.209 73.7827 298.68 81.5267 308.896 90.5227" stroke="#FFFF00" stroke-width="4" stroke-miterlimit="10" stroke-linecap="round" stroke-linejoin="round"/>
<path d="M98.7188 92.3049C125.044 68.4079 159.091 53.7199 195.297 51.5439C211.186 50.5889 227.491 52.0439 243.742 56.1879" stroke="#FFFF00" stroke-width="4" stroke-miterlimit="10" stroke-linecap="round" stroke-linejoin="round"/>
<path d="M333.918 79.1777C353.199 98.4017 367.972 121.715 377.143 147.275" stroke="#FFA500" stroke-width="4" stroke-miterlimit="10" stroke-linecap="round" stroke-linejoin="round"/>
<path d="M215.05 26.1587C226.643 26.8217 238.342 28.6037 250.016 31.5807C264.424 35.2547 277.993 40.5447 290.579 47.2077" stroke="#FFA500" stroke-width="4" stroke-miterlimit="10" stroke-linecap="round" stroke-linejoin="round"/>
<path d="M98.3608 60.0271C117.726 46.2011 139.714 36.1731 163.075 30.6851" stroke="#FFA500" stroke-width="4" stroke-miterlimit="10" stroke-linecap="round" stroke-linejoin="round"/>
<path d="M34.626 141.478C41.738 123.472 51.504 107.101 63.345 92.71" stroke="#FFA500" stroke-width="4" stroke-miterlimit="10" stroke-linecap="round" stroke-linejoin="round"/>
<path d="M22.5831 226.762C21.9451 220.25 21.6561 213.669 21.7301 207.042C21.8901 192.726 23.7431 178.2 27.4381 163.711" stroke="#FFA500" stroke-width="4" stroke-miterlimit="10" stroke-linecap="round" stroke-linejoin="round"/>
<path d="M159.568 386.29C132.641 379.424 108.646 366.914 88.5248 350.348C71.5328 336.358 57.3028 319.476 46.4028 300.656" stroke="#FFA500" stroke-width="4" stroke-miterlimit="10" stroke-linecap="round" stroke-linejoin="round"/>
<path d="M351.717 318.161C332.331 344.217 306.417 364.472 277.009 377.125C251.798 387.971 224.02 393.231 195.585 391.769" stroke="#FFA500" stroke-width="4" stroke-miterlimit="10" stroke-linecap="round" stroke-linejoin="round"/>
<path d="M387.62 199.387C388.554 217.369 386.829 235.794 382.146 254.16" stroke="#FFA500" stroke-width="4" stroke-miterlimit="10" stroke-linecap="round" stroke-linejoin="round"/>
<path d="M319.704 37.2148C336.104 48.1898 350.678 61.3718 363.114 76.2328" stroke="#FF0000" stroke-width="4" stroke-miterlimit="10" stroke-linecap="round" stroke-linejoin="round"/>
<path d="M145.211 11.1158C153.315 8.66684 161.595 6.70783 170.005 5.26683C180.662 3.44083 191.53 2.44384 202.52 2.32984C220.099 2.14784 237.99 4.22383 255.832 8.77383" stroke="#FF0000" stroke-width="4" stroke-miterlimit="10" stroke-linecap="round" stroke-linejoin="round"/>
<path d="M4.63086 157.895C8.43686 142.97 13.7789 128.843 20.4449 115.641" stroke="#FF0000" stroke-width="4" stroke-miterlimit="10" stroke-linecap="round" stroke-linejoin="round"/>
<path d="M25.0879 310.799C14.2509 291.685 6.43691 270.842 2.10791 249.043" stroke="#FF0000" stroke-width="4" stroke-miterlimit="10" stroke-linecap="round" stroke-linejoin="round"/>
<path d="M262.35 407.355C228.101 417.325 190.818 418.549 153.752 409.097C133.834 404.018 115.338 396.203 98.562 386.157" stroke="#FF0000" stroke-width="4" stroke-miterlimit="10" stroke-linecap="round" stroke-linejoin="round"/>
<path d="M394.233 291.363C382.122 319.29 364.265 343.514 342.461 362.966" stroke="#FF0000" stroke-width="4" stroke-miterlimit="10" stroke-linecap="round" stroke-linejoin="round"/>
<path d="M397.389 134.218C404.57 152.682 409.136 172.26 410.751 192.39" stroke="#FF0000" stroke-width="4" stroke-miterlimit="10" stroke-linecap="round" stroke-linejoin="round"/>
<path d="M363.669 197.376C363.431 198.309 362.482 198.873 361.549 198.635C360.616 198.397 360.052 197.448 360.29 196.515C360.528 195.582 361.477 195.019 362.41 195.256C363.343 195.494 363.907 196.443 363.669 197.376Z" fill="#FFFF00"/>
<path d="M237.644 363.2C237.406 364.133 236.457 364.697 235.524 364.459C234.591 364.221 234.027 363.272 234.265 362.339C234.503 361.406 235.452 360.842 236.385 361.08C237.319 361.318 237.882 362.267 237.644 363.2Z" fill="#FFFF00"/>
<path d="M318.289 248.431C318.051 249.364 317.102 249.927 316.169 249.69C315.236 249.452 314.672 248.503 314.91 247.57C315.148 246.637 316.097 246.074 317.03 246.311C317.964 246.549 318.527 247.498 318.289 248.431Z" fill="#0068FF"/>
<path d="M95.085 170.081C94.847 171.014 93.898 171.577 92.965 171.34C92.032 171.102 91.469 170.153 91.706 169.22C91.944 168.287 92.893 167.723 93.826 167.961C94.759 168.199 95.322 169.148 95.085 170.081Z" fill="#0068FF"/>
<path d="M188.045 326.434C187.807 327.367 186.858 327.931 185.925 327.693C184.992 327.455 184.428 326.506 184.666 325.573C184.904 324.64 185.853 324.076 186.786 324.314C187.72 324.552 188.283 325.501 188.045 326.434Z" fill="#0068FF"/>
<path d="M359.012 309.163C358.774 310.096 357.825 310.66 356.892 310.422C355.959 310.184 355.396 309.235 355.633 308.302C355.871 307.369 356.82 306.806 357.753 307.043C358.686 307.281 359.25 308.23 359.012 309.163Z" fill="#FFA500"/>
<path d="M160.341 188.52C160.103 189.453 159.154 190.017 158.221 189.779C157.288 189.541 156.724 188.592 156.962 187.659C157.2 186.726 158.149 186.162 159.082 186.4C160.015 186.638 160.579 187.587 160.341 188.52Z" fill="#FFFF00"/>
<path d="M25.6337 239.775C25.3957 240.708 24.4467 241.272 23.5137 241.034C22.5807 240.796 22.0167 239.847 22.2547 238.914C22.4927 237.981 23.4417 237.417 24.3747 237.655C25.3077 237.893 25.8717 238.842 25.6337 239.775Z" fill="#FFA500"/>
<path d="M118.773 313.953C118.535 314.886 117.586 315.449 116.653 315.212C115.72 314.974 115.156 314.025 115.394 313.092C115.632 312.159 116.581 311.595 117.514 311.833C118.447 312.07 119.011 313.02 118.773 313.953Z" fill="#00BD2D"/>
<path d="M293.896 103.173C293.658 104.106 292.709 104.67 291.776 104.432C290.843 104.194 290.279 103.245 290.517 102.312C290.755 101.379 291.704 100.815 292.637 101.053C293.57 101.291 294.134 102.24 293.896 103.173Z" fill="#00BD2D"/>
<path d="M255.165 294.491C254.927 295.424 253.978 295.988 253.045 295.75C252.112 295.512 251.548 294.563 251.786 293.63C252.024 292.697 252.973 292.134 253.906 292.371C254.839 292.608 255.403 293.558 255.165 294.491Z" fill="#8F00EA"/>
<path d="M144.587 285.374C144.349 286.307 143.4 286.871 142.467 286.633C141.534 286.395 140.97 285.446 141.208 284.513C141.446 283.58 142.395 283.017 143.328 283.254C144.261 283.491 144.825 284.441 144.587 285.374Z" fill="#8F00EA"/>
<path d="M151.518 129.106C151.28 130.039 150.331 130.603 149.398 130.365C148.465 130.127 147.902 129.178 148.139 128.245C148.377 127.312 149.326 126.749 150.259 126.986C151.193 127.224 151.756 128.173 151.518 129.106Z" fill="#8F00EA"/>
<path d="M125.608 200.931C125.37 201.864 124.421 202.428 123.488 202.19C122.555 201.952 121.992 201.003 122.229 200.07C122.467 199.137 123.416 198.573 124.349 198.811C125.283 199.049 125.846 199.998 125.608 200.931Z" fill="#F700CD"/>
<path d="M273.103 255.722C272.865 256.655 271.916 257.219 270.983 256.981C270.05 256.743 269.487 255.794 269.724 254.861C269.962 253.928 270.911 253.365 271.844 253.602C272.777 253.84 273.341 254.789 273.103 255.722Z" fill="#F700CD"/>
<path d="M264.69 153.081C264.452 154.014 263.503 154.577 262.57 154.34C261.637 154.102 261.073 153.153 261.311 152.22C261.549 151.287 262.498 150.723 263.431 150.961C264.364 151.198 264.928 152.148 264.69 153.081Z" fill="#F700CD"/>
<path d="M271.375 216.833C271.137 217.766 270.188 218.33 269.255 218.092C268.322 217.854 267.759 216.905 267.996 215.972C268.234 215.039 269.183 214.476 270.116 214.713C271.049 214.95 271.613 215.9 271.375 216.833Z" fill="#F4E4D2"/>
<path d="M119.948 103.244C119.71 104.177 118.761 104.741 117.828 104.503C116.895 104.265 116.331 103.316 116.569 102.383C116.807 101.45 117.756 100.886 118.689 101.124C119.622 101.362 120.186 102.311 119.948 103.244Z" fill="#00BD2D"/>
<path d="M174.462 28.1278C174.224 29.0608 173.275 29.6238 172.342 29.3868C171.409 29.1488 170.845 28.1998 171.083 27.2668C171.321 26.3338 172.27 25.7708 173.203 26.0078C174.136 26.2448 174.7 27.1948 174.462 28.1278Z" fill="#FFA500"/>
<path d="M27.6391 105.586C27.4011 106.519 26.452 107.082 25.519 106.845C24.586 106.607 24.022 105.658 24.26 104.725C24.498 103.792 25.4471 103.228 26.3801 103.466C27.3131 103.704 27.8771 104.653 27.6391 105.586Z" fill="#FF0000"/>
<path d="M91.161 380.484C90.923 381.417 89.974 381.98 89.041 381.743C88.108 381.505 87.544 380.556 87.782 379.623C88.02 378.69 88.969 378.126 89.902 378.364C90.836 378.601 91.399 379.551 91.161 380.484Z" fill="#FF0000"/>
<path d="M394.537 123.174C394.299 124.107 393.35 124.671 392.417 124.433C391.484 124.195 390.921 123.246 391.158 122.313C391.396 121.38 392.345 120.817 393.278 121.054C394.211 121.291 394.775 122.241 394.537 123.174Z" fill="#FF0000"/>
<path d="M269.929 12.3688C269.691 13.3018 268.742 13.8658 267.809 13.6278C266.876 13.3898 266.313 12.4408 266.55 11.5078C266.787 10.5748 267.737 10.0108 268.67 10.2488C269.604 10.4868 270.167 11.4358 269.929 12.3688Z" fill="#FF0000"/>
<path d="M222.806 151.515C242.429 157.7 256.596 173.095 262.046 191.437" stroke="#FF0000" stroke-width="3" stroke-miterlimit="10" stroke-linecap="round" stroke-linejoin="round"/>
<path d="M162.689 166.25C174.1 154.836 189.866 148.364 206.294 148.759" stroke="#FF0000" stroke-width="3" stroke-miterlimit="10" stroke-linecap="round" stroke-linejoin="round"/>
<path d="M162.035 249.811C147.348 234.599 141.236 212.032 148.039 190.446" stroke="#FF0000" stroke-width="3" stroke-miterlimit="10" stroke-linecap="round" stroke-linejoin="round"/>
<path d="M221.886 265.501C210.862 268.791 198.769 268.932 186.97 265.213" stroke="#FF0000" stroke-width="3" stroke-miterlimit="10" stroke-linecap="round" stroke-linejoin="round"/>
<path d="M261.738 226.281C257.774 238.858 250.027 249.194 240.145 256.429" stroke="#FF0000" stroke-width="3" stroke-miterlimit="10" stroke-linecap="round" stroke-linejoin="round"/>
<path d="M196.47 133.813C206.585 132.665 217.1 133.57 227.435 136.827C237.679 140.056 246.741 145.279 254.329 151.934" stroke="#F700CD" stroke-width="3" stroke-miterlimit="10" stroke-linecap="round" stroke-linejoin="round"/>
<path d="M133.351 185.817C138.498 169.485 148.716 156.157 161.722 147.019" stroke="#F700CD" stroke-width="3" stroke-miterlimit="10" stroke-linecap="round" stroke-linejoin="round"/>
<path d="M182.341 279.901C163.435 273.942 148.554 261.19 139.539 245.181" stroke="#F700CD" stroke-width="3" stroke-miterlimit="10" stroke-linecap="round" stroke-linejoin="round"/>
<path d="M257.044 262.289C241.966 276.846 221.147 284.709 199.712 283.209" stroke="#F700CD" stroke-width="3" stroke-miterlimit="10" stroke-linecap="round" stroke-linejoin="round"/>
<path d="M272.937 176.812C280.535 193.187 282.28 212.338 276.426 230.911" stroke="#F700CD" stroke-width="3" stroke-miterlimit="10" stroke-linecap="round" stroke-linejoin="round"/>
<path d="M166.981 126.13C186.708 117.029 209.754 114.957 232.108 122.002" stroke="#8F00EA" stroke-width="3" stroke-miterlimit="10" stroke-linecap="round" stroke-linejoin="round"/>
<path d="M137.63 269.011C123.552 253.369 115.18 233.092 114.378 211.763C113.998 201.666 115.316 191.333 118.527 181.144" stroke="#8F00EA" stroke-width="3" stroke-miterlimit="10" stroke-linecap="round" stroke-linejoin="round"/>
<path d="M205.156 298.937C196.061 298.961 186.807 297.605 177.669 294.725C174.347 293.678 171.127 292.457 168.018 291.075" stroke="#8F00EA" stroke-width="3" stroke-miterlimit="10" stroke-linecap="round" stroke-linejoin="round"/>
<path d="M291.249 235.583C284.693 256.383 271.325 273.148 254.378 284.195" stroke="#8F00EA" stroke-width="3" stroke-miterlimit="10" stroke-linecap="round" stroke-linejoin="round"/>
<path d="M254.195 132.389C266.362 140.276 276.254 150.87 283.3 163.077C290.795 176.062 295.069 190.872 295.436 206.188" stroke="#8F00EA" stroke-width="3" stroke-miterlimit="10" stroke-linecap="round" stroke-linejoin="round"/>
<path d="M312.644 194.181C314.663 209.442 313.455 225.376 308.522 241.028" stroke="#0068FF" stroke-width="3" stroke-miterlimit="10" stroke-linecap="round" stroke-linejoin="round"/>
<path d="M192.487 100.387C207.204 98.6878 222.509 99.9888 237.552 104.73C248.27 108.108 258.095 112.993 266.867 119.078" stroke="#0068FF" stroke-width="3" stroke-miterlimit="10" stroke-linecap="round" stroke-linejoin="round"/>
<path d="M117.14 144.227C126.598 131.284 138.718 120.758 152.453 113.193" stroke="#0068FF" stroke-width="3" stroke-miterlimit="10" stroke-linecap="round" stroke-linejoin="round"/>
<path d="M96.2363 205.609C96.4923 195.689 98.1233 185.638 101.255 175.701" stroke="#0068FF" stroke-width="3" stroke-miterlimit="10" stroke-linecap="round" stroke-linejoin="round"/>
<path d="M172.225 311.997C155.66 306.776 141.228 297.955 129.519 286.667" stroke="#0068FF" stroke-width="3" stroke-miterlimit="10" stroke-linecap="round" stroke-linejoin="round"/>
<path d="M279.418 287.461C263.931 302.027 244.417 311.801 223.429 315.452" stroke="#0068FF" stroke-width="3" stroke-miterlimit="10" stroke-linecap="round" stroke-linejoin="round"/>
<path d="M84.3901 170.385C88.5231 157.273 94.5961 145.309 102.193 134.712" stroke="#00BD2D" stroke-width="3" stroke-miterlimit="10" stroke-linecap="round" stroke-linejoin="round"/>
<path d="M90.2693 261.513C81.1523 241.866 77.0373 219.846 78.9883 197.495" stroke="#00BD2D" stroke-width="3" stroke-miterlimit="10" stroke-linecap="round" stroke-linejoin="round"/>
<path d="M166.909 328.862C150.578 323.715 136.029 315.557 123.682 305.194" stroke="#00BD2D" stroke-width="3" stroke-miterlimit="10" stroke-linecap="round" stroke-linejoin="round"/>
<path d="M325.386 246.343C317.347 271.849 301.967 293.006 282.307 308.221C264.48 322.017 243.134 330.927 220.552 333.762" stroke="#00BD2D" stroke-width="3" stroke-miterlimit="10" stroke-linecap="round" stroke-linejoin="round"/>
<path d="M297.754 122.67C313.782 140.072 324.676 161.721 329.076 185.007" stroke="#00BD2D" stroke-width="3" stroke-miterlimit="10" stroke-linecap="round" stroke-linejoin="round"/>
<path d="M207.937 82.0269C219.522 82.3119 231.262 84.2079 242.868 87.8659C247.027 89.1769 251.071 90.6829 254.992 92.3709" stroke="#00BD2D" stroke-width="3" stroke-miterlimit="10" stroke-linecap="round" stroke-linejoin="round"/>
<path d="M138.344 100.965C152.178 92.4016 167.62 86.5186 183.805 83.7666" stroke="#00BD2D" stroke-width="3" stroke-miterlimit="10" stroke-linecap="round" stroke-linejoin="round"/>
<path d="M60.1662 220.161C58.6772 201.975 60.6152 183.203 66.4382 164.727C69.2622 155.766 72.8752 147.273 77.1762 139.298" stroke="#FFFF00" stroke-width="3" stroke-miterlimit="10" stroke-linecap="round" stroke-linejoin="round"/>
<path d="M107.204 315.791C88.6043 298.856 74.7933 277.395 66.9883 253.743" stroke="#FFFF00" stroke-width="3" stroke-miterlimit="10" stroke-linecap="round" stroke-linejoin="round"/>
<path d="M219.324 352.845C200.319 354.753 180.622 352.919 161.25 346.813" stroke="#FFFF00" stroke-width="3" stroke-miterlimit="10" stroke-linecap="round" stroke-linejoin="round"/>
<path d="M343.339 252.001C339.003 265.759 332.807 278.416 325.117 289.782C317.089 301.647 307.433 312.105 296.561 320.941" stroke="#FFFF00" stroke-width="3" stroke-miterlimit="10" stroke-linecap="round" stroke-linejoin="round"/>
<path d="M337.854 150.109C344.665 165.638 348.786 182.388 349.829 199.616" stroke="#FFFF00" stroke-width="3" stroke-miterlimit="10" stroke-linecap="round" stroke-linejoin="round"/>
<path d="M276.373 81.9868C287.59 88.3168 297.741 96.0248 306.673 104.82" stroke="#FFFF00" stroke-width="3" stroke-miterlimit="10" stroke-linecap="round" stroke-linejoin="round"/>
<path d="M113.332 95.6925C138.761 75.0685 170.818 63.3075 204.22 63.1615C218.879 63.0975 233.796 65.2705 248.525 69.9125" stroke="#FFFF00" stroke-width="3" stroke-miterlimit="10" stroke-linecap="round" stroke-linejoin="round"/>
<path d="M330.261 95.6709C347.005 114.334 359.393 136.526 366.516 160.498" stroke="#FFA500" stroke-width="3" stroke-miterlimit="10" stroke-linecap="round" stroke-linejoin="round"/>
<path d="M223.684 40.8325C234.31 42.0365 244.975 44.2735 255.556 47.6085C268.616 51.7245 280.821 57.2835 292.051 64.0545" stroke="#FFA500" stroke-width="3" stroke-miterlimit="10" stroke-linecap="round" stroke-linejoin="round"/>
<path d="M114.656 65.9955C133.17 54.2745 153.9 46.1805 175.661 42.3315" stroke="#FFA500" stroke-width="3" stroke-miterlimit="10" stroke-linecap="round" stroke-linejoin="round"/>
<path d="M51.8823 137.622C59.3433 121.43 69.1623 106.878 80.7863 94.2529" stroke="#FFA500" stroke-width="3" stroke-miterlimit="10" stroke-linecap="round" stroke-linejoin="round"/>
<path d="M36.4401 215.421C36.1871 209.401 36.2591 203.335 36.6661 197.246C37.5461 184.091 39.9951 170.83 44.1341 157.697" stroke="#FFA500" stroke-width="3" stroke-miterlimit="10" stroke-linecap="round" stroke-linejoin="round"/>
<path d="M154.221 369.118C129.815 361.425 108.393 348.694 90.7401 332.432C75.8331 318.699 63.6142 302.447 54.5562 284.585" stroke="#FFA500" stroke-width="3" stroke-miterlimit="10" stroke-linecap="round" stroke-linejoin="round"/>
<path d="M334.387 316.319C315.228 339.284 290.363 356.58 262.675 366.707C238.939 375.388 213.128 378.802 187.058 376" stroke="#FFA500" stroke-width="3" stroke-miterlimit="10" stroke-linecap="round" stroke-linejoin="round"/>
<path d="M373.483 208.949C373.42 225.531 370.89 242.384 365.643 259.03" stroke="#FFA500" stroke-width="3" stroke-miterlimit="10" stroke-linecap="round" stroke-linejoin="round"/>
<path d="M319.342 56.3589C333.859 67.2899 346.585 80.1569 357.257 94.4589" stroke="#FF0000" stroke-width="3" stroke-miterlimit="10" stroke-linecap="round" stroke-linejoin="round"/>
<path d="M160.239 23.4237C167.816 21.5867 175.529 20.2107 183.335 19.3157C193.228 18.1827 203.271 17.8227 213.382 18.2807C229.555 19.0137 245.899 21.8397 262.07 26.9357" stroke="#FF0000" stroke-width="3" stroke-miterlimit="10" stroke-linecap="round" stroke-linejoin="round"/>
<path d="M23.4609 151.181C27.7249 137.653 33.3599 124.938 40.1659 113.139" stroke="#FF0000" stroke-width="3" stroke-miterlimit="10" stroke-linecap="round" stroke-linejoin="round"/>
<path d="M34.4391 292.818C25.4531 274.689 19.3371 255.124 16.4731 234.858" stroke="#FF0000" stroke-width="3" stroke-miterlimit="10" stroke-linecap="round" stroke-linejoin="round"/>
<path d="M247.647 393.752C215.646 401.165 181.303 400.38 147.706 389.791C129.653 384.101 113.046 375.968 98.1362 365.871" stroke="#FF0000" stroke-width="3" stroke-miterlimit="10" stroke-linecap="round" stroke-linejoin="round"/>
<path d="M374.85 293.857C362.284 318.915 344.624 340.273 323.58 357.041" stroke="#FF0000" stroke-width="3" stroke-miterlimit="10" stroke-linecap="round" stroke-linejoin="round"/>
<path d="M385.801 149.529C391.458 166.874 394.653 185.109 395.107 203.7" stroke="#FF0000" stroke-width="3" stroke-miterlimit="10" stroke-linecap="round" stroke-linejoin="round"/>
</svg>
