<svg width="392" height="396" viewBox="0 0 392 396" fill="none" xmlns="http://www.w3.org/2000/svg">
<path d="M189.339 182.706C192.25 181.663 195.495 181.446 198.717 182.267C203.656 183.526 207.471 186.947 209.406 191.259" stroke="#0068FF" stroke-width="4" stroke-miterlimit="10" stroke-linecap="round" stroke-linejoin="round"/>
<path d="M190.782 213.366C186.599 212.3 183.222 209.682 181.11 206.286C178.884 202.706 178.065 198.259 179.189 193.852" stroke="#0068FF" stroke-width="4" stroke-miterlimit="10" stroke-linecap="round" stroke-linejoin="round"/>
<path d="M210.31 201.782C209.107 206.496 205.931 210.185 201.888 212.191" stroke="#0068FF" stroke-width="4" stroke-miterlimit="10" stroke-linecap="round" stroke-linejoin="round"/>
<path d="M174.152 217.141C167.778 210.343 164.902 200.538 167.377 190.842" stroke="#00BD2D" stroke-width="4" stroke-miterlimit="10" stroke-linecap="round" stroke-linejoin="round"/>
<path d="M219.058 212.212C212.832 222.722 200.212 228.341 187.77 225.17" stroke="#00BD2D" stroke-width="4" stroke-miterlimit="10" stroke-linecap="round" stroke-linejoin="round"/>
<path d="M214.905 178.033C221.588 184.844 224.653 194.875 222.123 204.792" stroke="#00BD2D" stroke-width="4" stroke-miterlimit="10" stroke-linecap="round" stroke-linejoin="round"/>
<path d="M173.995 178.659C180.805 171.304 191.329 167.813 201.729 170.463" stroke="#00BD2D" stroke-width="4" stroke-miterlimit="10" stroke-linecap="round" stroke-linejoin="round"/>
<path d="M158.102 188.479C161.138 176.579 169.516 167.453 180.021 163.005" stroke="#FFFF00" stroke-width="4" stroke-miterlimit="10" stroke-linecap="round" stroke-linejoin="round"/>
<path d="M208.277 233.113C201.221 235.82 193.286 236.446 185.405 234.438C173.345 231.365 164.132 222.818 159.746 212.133" stroke="#FFFF00" stroke-width="4" stroke-miterlimit="10" stroke-linecap="round" stroke-linejoin="round"/>
<path d="M231.397 207.156C229.994 212.656 227.45 217.562 224.081 221.69" stroke="#FFFF00" stroke-width="4" stroke-miterlimit="10" stroke-linecap="round" stroke-linejoin="round"/>
<path d="M204.094 161.196C214.983 163.971 223.551 171.208 228.34 180.452" stroke="#FFFF00" stroke-width="4" stroke-miterlimit="10" stroke-linecap="round" stroke-linejoin="round"/>
<path d="M159.769 166.134C165.409 159.927 172.616 155.329 180.587 152.815C188.688 150.261 197.577 149.86 206.413 152.112" stroke="#FFA500" stroke-width="4" stroke-miterlimit="10" stroke-linecap="round" stroke-linejoin="round"/>
<path d="M154.662 222.718C148.116 212.192 145.706 199.119 149.012 186.162" stroke="#FFA500" stroke-width="4" stroke-miterlimit="10" stroke-linecap="round" stroke-linejoin="round"/>
<path d="M183.087 243.523C176.37 241.811 170.361 238.739 165.278 234.677" stroke="#FFA500" stroke-width="4" stroke-miterlimit="10" stroke-linecap="round" stroke-linejoin="round"/>
<path d="M228.356 230.948C220.312 239.082 209.455 244.138 197.841 244.896" stroke="#FFA500" stroke-width="4" stroke-miterlimit="10" stroke-linecap="round" stroke-linejoin="round"/>
<path d="M233.616 171.052C241.074 181.875 243.991 195.738 240.487 209.472C239.667 212.686 238.535 215.737 237.131 218.602" stroke="#FFA500" stroke-width="4" stroke-miterlimit="10" stroke-linecap="round" stroke-linejoin="round"/>
<path d="M209.89 138.484C230.384 143.706 245.806 158.688 252.449 177.189" stroke="#FF0000" stroke-width="4" stroke-miterlimit="10" stroke-linecap="round" stroke-linejoin="round"/>
<path d="M149.029 157.033C160.088 144.673 175.901 137.135 192.784 136.601" stroke="#FF0000" stroke-width="4" stroke-miterlimit="10" stroke-linecap="round" stroke-linejoin="round"/>
<path d="M153.136 242.777C137.191 228.014 129.627 205.216 135.376 182.688" stroke="#FF0000" stroke-width="4" stroke-miterlimit="10" stroke-linecap="round" stroke-linejoin="round"/>
<path d="M215.464 255.45C204.337 259.454 191.933 260.289 179.61 257.15" stroke="#FF0000" stroke-width="4" stroke-miterlimit="10" stroke-linecap="round" stroke-linejoin="round"/>
<path d="M254.124 212.946C250.774 226.072 243.413 237.116 233.684 245.102" stroke="#FF0000" stroke-width="4" stroke-miterlimit="10" stroke-linecap="round" stroke-linejoin="round"/>
<path d="M181.847 121.833C192.163 120.078 203.008 120.405 213.801 123.156C224.501 125.882 234.101 130.722 242.269 137.114" stroke="#F700CD" stroke-width="4" stroke-miterlimit="10" stroke-linecap="round" stroke-linejoin="round"/>
<path d="M120.035 178.778C124.384 161.733 134.109 147.479 146.936 137.364" stroke="#F700CD" stroke-width="4" stroke-miterlimit="10" stroke-linecap="round" stroke-linejoin="round"/>
<path d="M175.698 272.48C155.952 267.448 139.949 255.219 129.781 239.314" stroke="#F700CD" stroke-width="4" stroke-miterlimit="10" stroke-linecap="round" stroke-linejoin="round"/>
<path d="M251.366 250.146C236.723 265.939 215.803 275.194 193.717 274.88" stroke="#F700CD" stroke-width="4" stroke-miterlimit="10" stroke-linecap="round" stroke-linejoin="round"/>
<path d="M262.79 161.568C271.525 177.928 274.411 197.471 269.464 216.855" stroke="#F700CD" stroke-width="4" stroke-miterlimit="10" stroke-linecap="round" stroke-linejoin="round"/>
<path d="M151.14 115.639C170.867 105.177 194.403 101.734 217.749 107.684" stroke="#8F00EA" stroke-width="4" stroke-miterlimit="10" stroke-linecap="round" stroke-linejoin="round"/>
<path d="M129.184 263.865C113.84 248.626 104.086 228.307 102.044 206.476C101.078 196.142 101.838 185.468 104.552 174.833" stroke="#8F00EA" stroke-width="4" stroke-miterlimit="10" stroke-linecap="round" stroke-linejoin="round"/>
<path d="M200.202 290.701C190.868 291.246 181.293 290.383 171.749 287.952C168.28 287.067 164.905 285.999 161.635 284.76" stroke="#8F00EA" stroke-width="4" stroke-miterlimit="10" stroke-linecap="round" stroke-linejoin="round"/>
<path d="M284.947 220.801C279.407 242.509 266.645 260.468 249.883 272.767" stroke="#8F00EA" stroke-width="4" stroke-miterlimit="10" stroke-linecap="round" stroke-linejoin="round"/>
<path d="M241.013 117.074C253.953 124.468 264.712 134.769 272.641 146.887C281.077 159.777 286.31 174.723 287.563 190.411" stroke="#8F00EA" stroke-width="4" stroke-miterlimit="10" stroke-linecap="round" stroke-linejoin="round"/>
<path d="M304.539 177.113C307.484 192.651 307.156 209.063 302.987 225.397" stroke="#0068FF" stroke-width="4" stroke-miterlimit="10" stroke-linecap="round" stroke-linejoin="round"/>
<path d="M175.847 87.777C190.855 85.1935 206.638 85.6532 222.35 89.6567C233.543 92.5089 243.907 96.9579 253.258 102.698" stroke="#0068FF" stroke-width="4" stroke-miterlimit="10" stroke-linecap="round" stroke-linejoin="round"/>
<path d="M101.017 137.049C109.985 123.233 121.823 111.743 135.488 103.2" stroke="#0068FF" stroke-width="4" stroke-miterlimit="10" stroke-linecap="round" stroke-linejoin="round"/>
<path d="M83.0714 201.2C82.7675 191.01 83.8657 180.607 86.5126 170.237" stroke="#0068FF" stroke-width="4" stroke-miterlimit="10" stroke-linecap="round" stroke-linejoin="round"/>
<path d="M167.15 305.978C149.849 301.569 134.531 293.347 121.868 282.437" stroke="#0068FF" stroke-width="4" stroke-miterlimit="10" stroke-linecap="round" stroke-linejoin="round"/>
<path d="M275.769 274.687C260.707 290.511 241.236 301.652 219.904 306.596" stroke="#0068FF" stroke-width="4" stroke-miterlimit="10" stroke-linecap="round" stroke-linejoin="round"/>
<path d="M68.8989 165.748C72.3912 152.062 77.9405 139.446 85.1324 128.142" stroke="#00BD2D" stroke-width="4" stroke-miterlimit="10" stroke-linecap="round" stroke-linejoin="round"/>
<path d="M80.1444 258.88C69.6629 239.25 64.1807 216.899 64.9049 193.863" stroke="#00BD2D" stroke-width="4" stroke-miterlimit="10" stroke-linecap="round" stroke-linejoin="round"/>
<path d="M162.659 323.579C145.602 319.233 130.203 311.697 116.937 301.773" stroke="#00BD2D" stroke-width="4" stroke-miterlimit="10" stroke-linecap="round" stroke-linejoin="round"/>
<path d="M320.6 229.886C313.807 256.506 299.231 279.086 279.922 295.814C262.414 310.983 241.014 321.341 217.998 325.539" stroke="#00BD2D" stroke-width="4" stroke-miterlimit="10" stroke-linecap="round" stroke-linejoin="round"/>
<path d="M285.168 104.617C302.614 121.55 315.033 143.132 320.882 166.765" stroke="#00BD2D" stroke-width="4" stroke-miterlimit="10" stroke-linecap="round" stroke-linejoin="round"/>
<path d="M190.653 68.0614C202.56 67.6916 214.719 68.9658 226.841 72.0545C231.185 73.1613 235.421 74.4753 239.542 75.9823" stroke="#00BD2D" stroke-width="4" stroke-miterlimit="10" stroke-linecap="round" stroke-linejoin="round"/>
<path d="M120.308 91.4627C134.017 81.8891 149.53 74.9739 165.985 71.2258" stroke="#00BD2D" stroke-width="4" stroke-miterlimit="10" stroke-linecap="round" stroke-linejoin="round"/>
<path d="M46.8813 218.187C44.313 199.619 45.2284 180.254 50.1492 160.971C52.5357 151.619 55.7582 142.701 59.7171 134.276" stroke="#FFFF00" stroke-width="4" stroke-miterlimit="10" stroke-linecap="round" stroke-linejoin="round"/>
<path d="M100.629 313.584C80.5694 297.277 65.1672 276.054 55.8037 252.241" stroke="#FFFF00" stroke-width="4" stroke-miterlimit="10" stroke-linecap="round" stroke-linejoin="round"/>
<path d="M217.828 345.183C198.43 348.227 178.109 347.471 157.877 342.315" stroke="#FFFF00" stroke-width="4" stroke-miterlimit="10" stroke-linecap="round" stroke-linejoin="round"/>
<path d="M339.35 234.663C335.687 249.023 330.051 262.358 322.807 274.456C315.246 287.084 305.932 298.362 295.279 308.046" stroke="#FFFF00" stroke-width="4" stroke-miterlimit="10" stroke-linecap="round" stroke-linejoin="round"/>
<path d="M327.894 130.469C335.773 146.008 340.959 162.952 343.016 180.563" stroke="#FFFF00" stroke-width="4" stroke-miterlimit="10" stroke-linecap="round" stroke-linejoin="round"/>
<path d="M260.896 64.1108C272.771 69.9628 283.63 77.2886 293.301 85.7988" stroke="#FFFF00" stroke-width="4" stroke-miterlimit="10" stroke-linecap="round" stroke-linejoin="round"/>
<path d="M94.334 87.4846C119.255 64.878 151.486 50.9832 185.761 48.9247C200.803 48.0213 216.238 49.3977 231.622 53.3179" stroke="#FFFF00" stroke-width="4" stroke-miterlimit="10" stroke-linecap="round" stroke-linejoin="round"/>
<path d="M316.989 75.0664C335.242 93.2523 349.227 115.306 357.909 139.486" stroke="#FFA500" stroke-width="4" stroke-miterlimit="10" stroke-linecap="round" stroke-linejoin="round"/>
<path d="M204.46 24.9106C215.435 25.5378 226.51 27.2236 237.562 30.0399C251.201 33.5155 264.047 38.5198 275.961 44.823" stroke="#FFA500" stroke-width="4" stroke-miterlimit="10" stroke-linecap="round" stroke-linejoin="round"/>
<path d="M93.9949 56.9497C112.327 43.8703 133.142 34.3838 155.257 29.1921" stroke="#FFA500" stroke-width="4" stroke-miterlimit="10" stroke-linecap="round" stroke-linejoin="round"/>
<path d="M33.6592 134.002C40.3919 116.969 49.637 101.482 60.8465 87.8677" stroke="#FFA500" stroke-width="4" stroke-miterlimit="10" stroke-linecap="round" stroke-linejoin="round"/>
<path d="M22.2584 214.681C21.6544 208.521 21.3809 202.295 21.4509 196.026C21.6024 182.483 23.3566 168.741 26.8545 155.035" stroke="#FFA500" stroke-width="4" stroke-miterlimit="10" stroke-linecap="round" stroke-linejoin="round"/>
<path d="M151.938 365.594C126.447 359.099 103.731 347.265 84.6836 331.593C68.5978 318.359 55.1268 302.388 44.8081 284.585" stroke="#FFA500" stroke-width="4" stroke-miterlimit="10" stroke-linecap="round" stroke-linejoin="round"/>
<path d="M333.839 301.145C315.487 325.794 290.955 344.955 263.115 356.924C239.249 367.185 212.952 372.161 186.034 370.778" stroke="#FFA500" stroke-width="4" stroke-miterlimit="10" stroke-linecap="round" stroke-linejoin="round"/>
<path d="M367.828 188.784C368.712 205.795 367.078 223.225 362.645 240.599" stroke="#FFA500" stroke-width="4" stroke-miterlimit="10" stroke-linecap="round" stroke-linejoin="round"/>
<path d="M303.533 35.3696C319.058 45.752 332.855 58.2222 344.628 72.2807" stroke="#FF0000" stroke-width="4" stroke-miterlimit="10" stroke-linecap="round" stroke-linejoin="round"/>
<path d="M138.346 10.6799C146.018 8.36311 153.856 6.50989 161.818 5.1467C171.906 3.41931 182.195 2.47615 192.599 2.3683C209.24 2.19613 226.177 4.16003 243.067 8.46433" stroke="#FF0000" stroke-width="4" stroke-miterlimit="10" stroke-linecap="round" stroke-linejoin="round"/>
<path d="M5.26392 149.533C8.86693 135.414 13.924 122.05 20.2345 109.561" stroke="#FF0000" stroke-width="4" stroke-miterlimit="10" stroke-linecap="round" stroke-linejoin="round"/>
<path d="M24.6299 294.18C14.3709 276.098 6.97361 256.381 2.87549 235.759" stroke="#FF0000" stroke-width="4" stroke-miterlimit="10" stroke-linecap="round" stroke-linejoin="round"/>
<path d="M249.238 385.522C216.816 394.954 181.521 396.112 146.432 387.17C127.576 382.365 110.067 374.972 94.1853 365.469" stroke="#FF0000" stroke-width="4" stroke-miterlimit="10" stroke-linecap="round" stroke-linejoin="round"/>
<path d="M374.087 275.793C362.622 302.212 345.718 325.128 325.076 343.53" stroke="#FF0000" stroke-width="4" stroke-miterlimit="10" stroke-linecap="round" stroke-linejoin="round"/>
<path d="M377.075 127.134C383.873 144.601 388.195 163.122 389.724 182.165" stroke="#FF0000" stroke-width="4" stroke-miterlimit="10" stroke-linecap="round" stroke-linejoin="round"/>
<path d="M345.153 186.882C344.928 187.765 344.03 188.298 343.146 188.073C342.263 187.848 341.729 186.95 341.954 186.067C342.18 185.185 343.078 184.652 343.961 184.876C344.845 185.102 345.379 185.999 345.153 186.882Z" fill="#FFFF00"/>
<path d="M225.849 343.751C225.624 344.634 224.726 345.168 223.843 344.942C222.959 344.717 222.425 343.82 222.651 342.937C222.876 342.054 223.774 341.521 224.658 341.746C225.542 341.971 226.075 342.869 225.849 343.751Z" fill="#FFFF00"/>
<path d="M302.193 235.18C301.968 236.062 301.07 236.595 300.187 236.371C299.303 236.146 298.769 235.248 298.995 234.365C299.22 233.483 300.118 232.95 301.002 233.174C301.886 233.399 302.419 234.297 302.193 235.18Z" fill="#0068FF"/>
<path d="M90.8936 161.061C90.6683 161.943 89.7699 162.476 88.8867 162.252C88.0034 162.027 87.4705 161.129 87.6948 160.246C87.9201 159.364 88.8185 158.83 89.7017 159.055C90.585 159.28 91.118 160.178 90.8936 161.061Z" fill="#0068FF"/>
<path d="M178.896 308.971C178.671 309.853 177.772 310.387 176.889 310.162C176.006 309.936 175.472 309.039 175.697 308.156C175.922 307.274 176.821 306.74 177.704 306.965C178.588 307.19 179.121 308.088 178.896 308.971Z" fill="#0068FF"/>
<path d="M340.745 292.632C340.519 293.515 339.621 294.049 338.738 293.823C337.855 293.598 337.322 292.701 337.546 291.818C337.771 290.935 338.67 290.403 339.553 290.627C340.436 290.852 340.97 291.75 340.745 292.632Z" fill="#FFA500"/>
<path d="M152.669 178.504C152.444 179.387 151.546 179.92 150.662 179.695C149.779 179.47 149.245 178.572 149.471 177.69C149.696 176.807 150.594 176.273 151.477 176.499C152.361 176.724 152.895 177.621 152.669 178.504Z" fill="#FFFF00"/>
<path d="M25.1468 226.991C24.9215 227.874 24.0232 228.408 23.1399 228.182C22.2567 227.957 21.7228 227.059 21.9481 226.177C22.1734 225.294 23.0717 224.761 23.955 224.986C24.8382 225.211 25.3721 226.109 25.1468 226.991Z" fill="#FFA500"/>
<path d="M113.318 297.164C113.093 298.046 112.195 298.579 111.312 298.355C110.428 298.13 109.894 297.232 110.12 296.349C110.345 295.467 111.243 294.933 112.127 295.158C113.01 295.382 113.544 296.281 113.318 297.164Z" fill="#00BD2D"/>
<path d="M279.101 97.7658C278.876 98.6484 277.978 99.182 277.095 98.9568C276.211 98.7317 275.677 97.8339 275.903 96.9513C276.128 96.0687 277.026 95.5351 277.91 95.7603C278.793 95.9854 279.327 96.8832 279.101 97.7658Z" fill="#00BD2D"/>
<path d="M242.436 278.753C242.211 279.635 241.312 280.169 240.429 279.944C239.546 279.718 239.012 278.821 239.237 277.938C239.463 277.055 240.361 276.523 241.244 276.747C242.128 276.971 242.661 277.87 242.436 278.753Z" fill="#8F00EA"/>
<path d="M137.756 270.128C137.53 271.011 136.632 271.544 135.749 271.319C134.866 271.094 134.332 270.196 134.557 269.314C134.782 268.431 135.681 267.898 136.564 268.123C137.447 268.347 137.981 269.245 137.756 270.128Z" fill="#8F00EA"/>
<path d="M144.317 122.298C144.092 123.181 143.193 123.715 142.31 123.489C141.427 123.264 140.894 122.367 141.118 121.484C141.343 120.601 142.242 120.069 143.125 120.293C144.009 120.518 144.542 121.416 144.317 122.298Z" fill="#8F00EA"/>
<path d="M119.789 190.245C119.564 191.127 118.665 191.661 117.782 191.436C116.899 191.211 116.366 190.313 116.59 189.43C116.815 188.548 117.714 188.014 118.597 188.239C119.481 188.464 120.014 189.362 119.789 190.245Z" fill="#F700CD"/>
<path d="M259.418 242.077C259.192 242.96 258.294 243.493 257.411 243.268C256.527 243.043 255.994 242.145 256.219 241.263C256.444 240.38 257.342 239.848 258.226 240.072C259.109 240.297 259.643 241.195 259.418 242.077Z" fill="#F700CD"/>
<path d="M251.453 144.979C251.228 145.861 250.329 146.394 249.446 146.17C248.563 145.945 248.029 145.047 248.254 144.164C248.48 143.282 249.378 142.748 250.261 142.973C251.144 143.197 251.678 144.096 251.453 144.979Z" fill="#F700CD"/>
<path d="M257.782 205.288C257.556 206.171 256.658 206.704 255.775 206.479C254.891 206.254 254.358 205.356 254.583 204.474C254.808 203.591 255.706 203.058 256.59 203.283C257.473 203.507 258.007 204.406 257.782 205.288Z" fill="#F4E4D2"/>
<path d="M114.431 97.8329C114.205 98.7156 113.307 99.2491 112.424 99.024C111.541 98.7988 111.007 97.901 111.232 97.0184C111.457 96.1358 112.356 95.6023 113.239 95.8274C114.122 96.0526 114.656 96.9503 114.431 97.8329Z" fill="#00BD2D"/>
<path d="M166.037 26.7733C165.812 27.6559 164.914 28.1885 164.03 27.9643C163.147 27.7392 162.613 26.8414 162.838 25.9588C163.064 25.0762 163.962 24.5436 164.845 24.7678C165.729 24.992 166.263 25.8907 166.037 26.7733Z" fill="#FFA500"/>
<path d="M27.0448 100.049C26.8195 100.931 25.9211 101.464 25.0379 101.24C24.1546 101.014 23.6207 100.117 23.846 99.234C24.0713 98.3514 24.9697 97.8178 25.8529 98.043C26.7362 98.2681 27.2701 99.1659 27.0448 100.049Z" fill="#FF0000"/>
<path d="M87.1791 360.102C86.9538 360.985 86.0554 361.517 85.1721 361.293C84.2889 361.068 83.755 360.17 83.9803 359.287C84.2056 358.405 85.104 357.871 85.9872 358.096C86.8714 358.321 87.4044 359.219 87.1791 360.102Z" fill="#FF0000"/>
<path d="M374.375 116.687C374.15 117.569 373.251 118.103 372.368 117.878C371.485 117.652 370.952 116.755 371.176 115.872C371.402 114.99 372.3 114.457 373.183 114.681C374.066 114.905 374.6 115.804 374.375 116.687Z" fill="#FF0000"/>
<path d="M256.413 11.8652C256.187 12.7478 255.289 13.2813 254.406 13.0562C253.522 12.831 252.989 11.9333 253.214 11.0507C253.438 10.168 254.338 9.63449 255.221 9.85964C256.105 10.0848 256.638 10.9825 256.413 11.8652Z" fill="#FF0000"/>
<path d="M211.803 143.497C230.379 149.348 243.791 163.912 248.95 181.264" stroke="#FF0000" stroke-width="3" stroke-miterlimit="10" stroke-linecap="round" stroke-linejoin="round"/>
<path d="M154.892 157.437C165.695 146.639 180.62 140.517 196.171 140.89" stroke="#FF0000" stroke-width="3" stroke-miterlimit="10" stroke-linecap="round" stroke-linejoin="round"/>
<path d="M154.273 236.485C140.369 222.095 134.583 200.747 141.023 180.326" stroke="#FF0000" stroke-width="3" stroke-miterlimit="10" stroke-linecap="round" stroke-linejoin="round"/>
<path d="M210.932 251.328C200.496 254.44 189.048 254.574 177.878 251.056" stroke="#FF0000" stroke-width="3" stroke-miterlimit="10" stroke-linecap="round" stroke-linejoin="round"/>
<path d="M248.658 214.226C244.905 226.124 237.571 235.902 228.216 242.746" stroke="#FF0000" stroke-width="3" stroke-miterlimit="10" stroke-linecap="round" stroke-linejoin="round"/>
<path d="M186.872 126.751C196.447 125.665 206.401 126.521 216.185 129.602C225.883 132.657 234.461 137.598 241.645 143.894" stroke="#F700CD" stroke-width="3" stroke-miterlimit="10" stroke-linecap="round" stroke-linejoin="round"/>
<path d="M127.119 175.947C131.991 160.497 141.664 147.889 153.977 139.244" stroke="#F700CD" stroke-width="3" stroke-miterlimit="10" stroke-linecap="round" stroke-linejoin="round"/>
<path d="M173.496 264.951C155.598 259.313 141.511 247.25 132.977 232.105" stroke="#F700CD" stroke-width="3" stroke-miterlimit="10" stroke-linecap="round" stroke-linejoin="round"/>
<path d="M244.215 248.29C229.941 262.06 210.232 269.499 189.941 268.08" stroke="#F700CD" stroke-width="3" stroke-miterlimit="10" stroke-linecap="round" stroke-linejoin="round"/>
<path d="M259.259 167.429C266.452 182.919 268.104 201.036 262.562 218.606" stroke="#F700CD" stroke-width="3" stroke-miterlimit="10" stroke-linecap="round" stroke-linejoin="round"/>
<path d="M158.955 119.483C177.63 110.874 199.447 108.914 220.609 115.578" stroke="#8F00EA" stroke-width="3" stroke-miterlimit="10" stroke-linecap="round" stroke-linejoin="round"/>
<path d="M131.17 254.649C117.843 239.851 109.917 220.669 109.158 200.492C108.798 190.94 110.046 181.165 113.086 171.526" stroke="#8F00EA" stroke-width="3" stroke-miterlimit="10" stroke-linecap="round" stroke-linejoin="round"/>
<path d="M195.093 282.959C186.483 282.981 177.723 281.699 169.072 278.974C165.927 277.984 162.879 276.829 159.936 275.521" stroke="#8F00EA" stroke-width="3" stroke-miterlimit="10" stroke-linecap="round" stroke-linejoin="round"/>
<path d="M276.596 223.026C270.389 242.702 257.734 258.562 241.691 269.013" stroke="#8F00EA" stroke-width="3" stroke-miterlimit="10" stroke-linecap="round" stroke-linejoin="round"/>
<path d="M241.518 125.404C253.036 132.865 262.4 142.887 269.071 154.435C276.166 166.719 280.212 180.729 280.559 195.218" stroke="#8F00EA" stroke-width="3" stroke-miterlimit="10" stroke-linecap="round" stroke-linejoin="round"/>
<path d="M296.85 183.859C298.761 198.296 297.617 213.37 292.948 228.177" stroke="#0068FF" stroke-width="3" stroke-miterlimit="10" stroke-linecap="round" stroke-linejoin="round"/>
<path d="M183.101 95.1303C197.033 93.523 211.522 94.7538 225.762 99.2388C235.909 102.434 245.21 107.056 253.514 112.812" stroke="#0068FF" stroke-width="3" stroke-miterlimit="10" stroke-linecap="round" stroke-linejoin="round"/>
<path d="M111.772 136.603C120.726 124.359 132.2 114.401 145.202 107.245" stroke="#0068FF" stroke-width="3" stroke-miterlimit="10" stroke-linecap="round" stroke-linejoin="round"/>
<path d="M91.9834 194.67C92.2257 185.286 93.7698 175.778 96.7347 166.377" stroke="#0068FF" stroke-width="3" stroke-miterlimit="10" stroke-linecap="round" stroke-linejoin="round"/>
<path d="M163.92 295.313C148.238 290.374 134.576 282.03 123.491 271.351" stroke="#0068FF" stroke-width="3" stroke-miterlimit="10" stroke-linecap="round" stroke-linejoin="round"/>
<path d="M265.396 272.102C250.734 285.882 232.261 295.128 212.393 298.582" stroke="#0068FF" stroke-width="3" stroke-miterlimit="10" stroke-linecap="round" stroke-linejoin="round"/>
<path d="M80.769 161.348C84.6816 148.945 90.4307 137.627 97.6225 127.602" stroke="#00BD2D" stroke-width="3" stroke-miterlimit="10" stroke-linecap="round" stroke-linejoin="round"/>
<path d="M86.3345 247.555C77.7037 228.969 73.8082 208.138 75.6551 186.994" stroke="#00BD2D" stroke-width="3" stroke-miterlimit="10" stroke-linecap="round" stroke-linejoin="round"/>
<path d="M158.887 311.268C143.427 306.399 129.654 298.681 117.966 288.878" stroke="#00BD2D" stroke-width="3" stroke-miterlimit="10" stroke-linecap="round" stroke-linejoin="round"/>
<path d="M308.912 233.205C301.302 257.333 286.742 277.348 268.131 291.741C251.254 304.792 231.047 313.221 209.669 315.903" stroke="#00BD2D" stroke-width="3" stroke-miterlimit="10" stroke-linecap="round" stroke-linejoin="round"/>
<path d="M282.754 116.21C297.927 132.672 308.24 153.152 312.405 175.181" stroke="#00BD2D" stroke-width="3" stroke-miterlimit="10" stroke-linecap="round" stroke-linejoin="round"/>
<path d="M197.726 77.7617C208.693 78.0313 219.807 79.8249 230.794 83.2854C234.731 84.5256 238.56 85.9503 242.271 87.5471" stroke="#00BD2D" stroke-width="3" stroke-miterlimit="10" stroke-linecap="round" stroke-linejoin="round"/>
<path d="M131.845 95.677C144.942 87.5764 159.56 82.0111 174.882 79.4077" stroke="#00BD2D" stroke-width="3" stroke-miterlimit="10" stroke-linecap="round" stroke-linejoin="round"/>
<path d="M57.8371 208.437C56.4275 191.233 58.2621 173.474 63.7746 155.996C66.448 147.519 69.8682 139.485 73.9399 131.94" stroke="#FFFF00" stroke-width="3" stroke-miterlimit="10" stroke-linecap="round" stroke-linejoin="round"/>
<path d="M102.366 298.902C84.7583 282.882 71.6839 262.58 64.2952 240.205" stroke="#FFFF00" stroke-width="3" stroke-miterlimit="10" stroke-linecap="round" stroke-linejoin="round"/>
<path d="M208.507 333.957C190.515 335.761 171.869 334.027 153.53 328.25" stroke="#FFFF00" stroke-width="3" stroke-miterlimit="10" stroke-linecap="round" stroke-linejoin="round"/>
<path d="M325.906 238.557C321.802 251.572 315.936 263.546 308.656 274.298C301.056 285.522 291.915 295.416 281.623 303.774" stroke="#FFFF00" stroke-width="3" stroke-miterlimit="10" stroke-linecap="round" stroke-linejoin="round"/>
<path d="M320.714 142.167C327.162 156.858 331.063 172.703 332.05 189.001" stroke="#FFFF00" stroke-width="3" stroke-miterlimit="10" stroke-linecap="round" stroke-linejoin="round"/>
<path d="M262.513 77.7239C273.132 83.7121 282.741 91.0038 291.197 99.3239" stroke="#FFFF00" stroke-width="3" stroke-miterlimit="10" stroke-linecap="round" stroke-linejoin="round"/>
<path d="M108.167 90.6897C132.24 71.1794 162.588 60.0535 194.208 59.9154C208.085 59.8548 222.207 61.9105 236.15 66.3018" stroke="#FFFF00" stroke-width="3" stroke-miterlimit="10" stroke-linecap="round" stroke-linejoin="round"/>
<path d="M313.527 90.6689C329.378 108.324 341.105 129.318 347.848 151.995" stroke="#FFA500" stroke-width="3" stroke-miterlimit="10" stroke-linecap="round" stroke-linejoin="round"/>
<path d="M212.633 38.7922C222.693 39.9312 232.789 42.0474 242.805 45.2023C255.169 49.0961 266.723 54.3549 277.354 60.7602" stroke="#FFA500" stroke-width="3" stroke-miterlimit="10" stroke-linecap="round" stroke-linejoin="round"/>
<path d="M109.421 62.5963C126.947 51.5083 146.572 43.8514 167.172 40.2102" stroke="#FFA500" stroke-width="3" stroke-miterlimit="10" stroke-linecap="round" stroke-linejoin="round"/>
<path d="M49.9949 130.355C57.058 115.037 66.3533 101.271 77.3573 89.3276" stroke="#FFA500" stroke-width="3" stroke-miterlimit="10" stroke-linecap="round" stroke-linejoin="round"/>
<path d="M35.3763 203.952C35.1368 198.257 35.205 192.519 35.5903 186.759C36.4234 174.314 38.7417 161.769 42.66 149.345" stroke="#FFA500" stroke-width="3" stroke-miterlimit="10" stroke-linecap="round" stroke-linejoin="round"/>
<path d="M146.876 349.35C123.772 342.072 103.492 330.029 86.7805 314.645C72.6686 301.653 61.1013 286.279 52.5264 269.382" stroke="#FFA500" stroke-width="3" stroke-miterlimit="10" stroke-linecap="round" stroke-linejoin="round"/>
<path d="M317.432 299.402C299.295 321.127 275.756 337.489 249.545 347.069C227.074 355.281 202.64 358.511 177.96 355.86" stroke="#FFA500" stroke-width="3" stroke-miterlimit="10" stroke-linecap="round" stroke-linejoin="round"/>
<path d="M354.443 197.83C354.383 213.517 351.988 229.46 347.021 245.207" stroke="#FFA500" stroke-width="3" stroke-miterlimit="10" stroke-linecap="round" stroke-linejoin="round"/>
<path d="M303.19 53.4797C316.933 63.8205 328.98 75.9926 339.083 89.5223" stroke="#FF0000" stroke-width="3" stroke-miterlimit="10" stroke-linecap="round" stroke-linejoin="round"/>
<path d="M152.573 22.3233C159.746 20.5855 167.047 19.2838 174.437 18.4371C183.802 17.3653 193.31 17.0248 202.881 17.458C218.192 18.1514 233.664 20.8248 248.973 25.6457" stroke="#FF0000" stroke-width="3" stroke-miterlimit="10" stroke-linecap="round" stroke-linejoin="round"/>
<path d="M23.0896 143.181C27.1262 130.384 32.4607 118.355 38.9037 107.194" stroke="#FF0000" stroke-width="3" stroke-miterlimit="10" stroke-linecap="round" stroke-linejoin="round"/>
<path d="M33.4822 277.17C24.9754 260.02 19.1856 241.511 16.4744 222.34" stroke="#FF0000" stroke-width="3" stroke-miterlimit="10" stroke-linecap="round" stroke-linejoin="round"/>
<path d="M235.319 372.654C205.025 379.666 172.513 378.924 140.708 368.906C123.618 363.524 107.897 355.83 93.782 346.278" stroke="#FF0000" stroke-width="3" stroke-miterlimit="10" stroke-linecap="round" stroke-linejoin="round"/>
<path d="M355.738 278.153C343.842 301.858 327.124 322.062 307.202 337.925" stroke="#FF0000" stroke-width="3" stroke-miterlimit="10" stroke-linecap="round" stroke-linejoin="round"/>
<path d="M366.105 141.619C371.46 158.027 374.485 175.277 374.915 192.864" stroke="#FF0000" stroke-width="3" stroke-miterlimit="10" stroke-linecap="round" stroke-linejoin="round"/>
<rect opacity="0.9" x="53.5" y="140.5" width="284.029" height="115" rx="9.5" fill="black" fill-opacity="0.82" stroke="black"/>
<path d="M83.2967 221.572H72.7512L88.8194 175.026H101.501L117.547 221.572H107.001L95.3422 185.662H94.9785L83.2967 221.572ZM82.6376 203.276H107.547V210.958H82.6376V203.276ZM131.172 221.572H120.626L136.694 175.026H149.376L165.422 221.572H154.876L143.217 185.662H142.854L131.172 221.572ZM130.513 203.276H155.422V210.958H130.513V203.276ZM179.047 221.572H168.501L184.569 175.026H197.251L213.297 221.572H202.751L191.092 185.662H190.729L179.047 221.572ZM178.388 203.276H203.297V210.958H178.388V203.276Z" fill="white"/>
<path d="M234.815 204.526L245.633 193.572L267.678 215.253L315.36 167.753L326.269 178.708L267.678 237.072L234.815 204.526Z" fill="#23FF23"/>
</svg>
